#!OML:ASF G:\JayActor3\Patient Classification 1\Patient 1\Session 5\male.ASF
:FULLY-SPECIFIED
:DEGREES
955
root 45.9197 16.9967 -6.5114 -2.27904 -88.609 0.860518
lowerback 1.77769 -1.40655 0.439209
upperback -0.491088 -1.87261 -0.464743
thorax -1.52852 -0.941991 -0.66396
lowerneck -4.06436 0.818318 1.84852
upperneck 10.7281 0.699975 1.28021
head 4.24696 0.432521 0.132472
rclavicle 1.10791e-014 1.49089e-015
rhumerus -36.1558 -7.65324 -85.5347
rradius 26.7733
rwrist 3.0128
rhand -18.6213 -13.183
rfingers 7.12502
rthumb 7.67065 -43.0239
lclavicle 1.10791e-014 1.49089e-015
lhumerus -34.2379 11.9128 80.5251
lradius 19.1718
lwrist 13.2784
lhand -19.3448 12.9641
lfingers 7.12502
lthumb 6.97228 42.8293
rfemur -26.2286 11.4172 20.4396
rtibia 34.4746
rfoot 6.27168 -8.59112
rtoes -0.590723
lfemur 24.6889 2.21325 -21.8472
ltibia -1.90833e-014
lfoot 18.9808 -7.56539
ltoes -27.9852
956
root 46.0967 16.9967 -6.50274 -2.31703 -88.7107 0.894478
lowerback 2.11774 -1.36616 0.391979
upperback -0.471533 -1.81941 -0.478551
thorax -1.69738 -0.915273 -0.644782
lowerneck -4.03428 0.82659 1.86714
upperneck 10.6408 0.706998 1.33754
head 4.20941 0.438978 0.148182
rclavicle -9.30871e-015 2.68359e-015
rhumerus -36.0984 -7.65172 -85.6339
rradius 26.8364
rwrist 2.97763
rhand -18.6582 -13.1902
rfingers 7.12502
rthumb 7.63508 -43.0324
lclavicle -9.30871e-015 2.68359e-015
lhumerus -34.0308 11.5795 80.7808
lradius 19.3465
lwrist 13.5056
lhand -19.3621 12.9842
lfingers 7.12502
lthumb 6.95566 42.85
rfemur -26.611 11.397 20.2467
rtibia 33.882
rfoot 6.9261 -9.23425
rtoes 0.141367
lfemur 24.2726 2.53398 -21.9181
ltibia -1.11319e-013
lfoot 17.8408 -7.5599
ltoes -28.478
957
root 46.273 16.9996 -6.49405 -3.7559 -88.8474 2.321
lowerback 2.46112 -1.31215 0.317051
upperback -0.449947 -1.74958 -0.501735
thorax -1.86533 -0.879974 -0.620874
lowerneck -4.01258 0.830326 1.88664
upperneck 10.5676 0.707242 1.39463
head 4.17864 0.442121 0.163386
rclavicle -2.50655e-015 3.18055e-015
rhumerus -36.043 -7.66716 -85.7329
rradius 26.8792
rwrist 2.95009
rhand -18.7009 -13.2009
rfingers 7.12502
rthumb 7.59389 -43.0445
lclavicle -2.50655e-015 3.18055e-015
lhumerus -33.8278 11.2637 81.0174
lradius 19.4874
lwrist 13.6869
lhand -19.3821 12.999
lfingers 7.12502
lthumb 6.93635 42.8653
rfemur -26.9679 11.3848 20.0227
rtibia 33.2652
rfoot 7.51713 -9.92067
rtoes 0.590617
lfemur 23.8382 2.88396 -22.0004
ltibia -1.90833e-014
lfoot 16.8514 -7.55254
ltoes -28.6897
958
root 46.448 17.0042 -6.48511 -7.8804 -89.0133 6.43354
lowerback 2.78667 -1.24703 0.208626
upperback -0.424036 -1.66713 -0.537346
thorax -2.01825 -0.837995 -0.592708
lowerneck -4.0113 0.828881 1.90412
upperneck 10.5104 0.700141 1.44864
head 4.15772 0.441576 0.177715
rclavicle -6.34869e-015 5.06901e-015
rhumerus -35.9813 -7.69977 -85.8302
rradius 26.8962
rwrist 2.94418
rhand -18.7389 -13.2158
rfingers 7.12502
rthumb 7.5572 -43.0608
lclavicle -6.34869e-015 5.06901e-015
lhumerus -33.6276 10.9765 81.23
lradius 19.5921
lwrist 13.8141
lhand -19.3964 13.0215
lfingers 7.12502
lthumb 6.92255 42.8884
rfemur -27.3173 11.3838 19.754
rtibia 32.6631
rfoot 7.98709 -10.5787
rtoes 0.575706
lfemur 23.3814 3.25874 -22.0983
ltibia -1.43125e-013
lfoot 15.9836 -7.59995
ltoes -28.6622
959
root 46.6209 17.0096 -6.47591 -15.962 -89.1958 14.5219
lowerback 3.06213 -1.17354 0.0807197
upperback -0.396544 -1.57539 -0.583327
thorax -2.14132 -0.791139 -0.56663
lowerneck -4.02332 0.825454 1.918
upperneck 10.468 0.690161 1.50025
head 4.14479 0.439468 0.191865
rclavicle -1.59773e-014 -8.34896e-015
rhumerus -35.9164 -7.74862 -85.9239
rradius 26.8904
rwrist 2.97134
rhand -18.7503 -13.2283
rfingers 7.12502
rthumb 7.54618 -43.0737
lclavicle -1.59773e-014 -8.34896e-015
lhumerus -33.4358 10.7296 81.4108
lradius 19.6647
lwrist 13.8842
lhand -19.4061 13.0441
lfingers 7.12502
lthumb 6.91319 42.9112
rfemur -27.6844 11.3919 19.4519
rtibia 32.1212
rfoot 8.31068 -11.0847
rtoes -0.0255024
lfemur 22.8923 3.65348 -22.2
ltibia -3.18055e-015
lfoot 15.2178 -7.75123
ltoes -28.5077
960
root 46.7905 17.0145 -6.46652 -31.8685 -89.3637 30.4558
lowerback 3.26966 -1.09489 -0.0683201
upperback -0.366141 -1.47859 -0.639896
thorax -2.22324 -0.741534 -0.541988
lowerneck -4.05631 0.818022 1.9353
upperneck 10.444 0.675237 1.53556
head 4.14272 0.434548 0.199923
rclavicle 3.78467e-015 2.78299e-015
rhumerus -35.8515 -7.8057 -86.0164
rradius 26.8672
rwrist 3.03152
rhand -18.7297 -13.2235
rfingers 7.12502
rthumb 7.56603 -43.0682
lclavicle 3.78467e-015 2.78299e-015
lhumerus -33.2564 10.5213 81.5619
lradius 19.7092
lwrist 13.9088
lhand -19.3959 13.0642
lfingers 7.12502
lthumb 6.92302 42.931
rfemur -28.0707 11.4038 19.124
rtibia 31.6954
rfoot 8.44986 -11.3207
rtoes -1.10562
lfemur 22.3801 4.06634 -22.3094
ltibia -5.725e-014
lfoot 14.5175 -8.01705
ltoes -28.3352
961
root 46.9562 17.0177 -6.45715 -59.6867 -89.4445 58.3264
lowerback 3.40317 -1.00929 -0.236937
upperback -0.337557 -1.37408 -0.709022
thorax -2.26556 -0.687952 -0.521608
lowerneck -4.08211 0.80973 1.95159
upperneck 10.4202 0.660018 1.56448
head 4.13932 0.429082 0.205972
rclavicle 1.63531e-015 -1.98785e-015
rhumerus -35.8007 -7.8714 -86.1085
rradius 26.8425
rwrist 3.10948
rhand -18.6708 -13.2106
rfingers 7.12502
rthumb 7.62289 -43.0532
lclavicle 1.63531e-015 -1.98785e-015
lhumerus -33.1077 10.3263 81.6852
lradius 19.7422
lwrist 13.9154
lhand -19.3556 13.0651
lfingers 7.12502
lthumb 6.96187 42.9306
rfemur -28.4782 11.3981 18.789
rtibia 31.4409
rfoot 8.38504 -11.2216
rtoes -2.54922
lfemur 21.8442 4.49738 -22.4305
ltibia 2.54444e-014
lfoot 13.874 -8.3715
ltoes -28.1114
962
root 47.1176 17.0182 -6.44794 -89.746 -89.3425 88.4565
lowerback 3.46442 -0.922983 -0.434593
upperback -0.308386 -1.27014 -0.789155
thorax -2.26669 -0.634478 -0.497833
lowerneck -4.09976 0.802933 1.9677
upperneck 10.3951 0.648451 1.58027
head 4.13384 0.424751 0.207797
rclavicle -1.40392e-015 3.77691e-015
rhumerus -35.7655 -7.92331 -86.2063
rradius 26.8286
rwrist 3.18596
rhand -18.5809 -13.1931
rfingers 7.12502
rthumb 7.70965 -43.0326
lclavicle -1.40392e-015 3.77691e-015
lhumerus -32.9917 10.1438 81.7846
lradius 19.77
lwrist 13.9226
lhand -19.303 13.0683
lfingers 7.12502
lthumb 7.0127 42.9321
rfemur -28.8906 11.3489 18.4614
rtibia 31.4077
rfoot 8.05695 -10.8201
rtoes -4.14906
lfemur 21.2999 4.93976 -22.5741
ltibia -5.40694e-014
lfoot 13.2799 -8.78735
ltoes -27.8509
963
root 47.2742 17.0155 -6.43911 -108.81 -89.1071 107.599
lowerback 3.47334 -0.837403 -0.640735
upperback -0.281487 -1.16729 -0.870906
thorax -2.24108 -0.581596 -0.471826
lowerneck -4.11242 0.800509 1.98473
upperneck 10.3787 0.643998 1.58155
head 4.13058 0.423303 0.204985
rclavicle 9.03849e-016 3.77691e-015
rhumerus -35.7528 -7.95447 -86.3109
rradius 26.8332
rwrist 3.24156
rhand -18.4792 -13.1731
rfingers 7.12502
rthumb 7.80786 -43.0089
lclavicle 9.03849e-016 3.77691e-015
lhumerus -32.9178 9.97102 81.8626
lradius 19.7951
lwrist 13.9412
lhand -19.226 13.0545
lfingers 7.12502
lthumb 7.08696 42.9158
rfemur -29.2839 11.2398 18.1868
rtibia 31.6267
rfoot 7.41685 -10.2162
rtoes -5.64287
lfemur 19.9967 5.38367 -22.7038
ltibia 1.40544
lfoot 12.0896 -9.27144
ltoes -27.5847
964
root 47.4266 17.01 -6.43052 -119.294 -88.8226 118.156
lowerback 3.45161 -0.756542 -0.841862
upperback -0.256999 -1.06993 -0.946072
thorax -2.20114 -0.531599 -0.441961
lowerneck -4.10675 0.800864 2.00035
upperneck 10.3623 0.645449 1.56687
head 4.12371 0.423845 0.197294
rclavicle -9.22873e-015 -3.18055e-015
rhumerus -35.7618 -7.95688 -86.4188
rradius 26.8522
rwrist 3.24885
rhand -18.3923 -13.1564
rfingers 7.12502
rthumb 7.89174 -42.9891
lclavicle -9.22873e-015 -3.18055e-015
lhumerus -32.8822 9.81858 81.9227
lradius 19.8064
lwrist 13.9668
lhand -19.1394 13.0248
lfingers 7.12502
lthumb 7.1706 42.8833
rfemur -29.6291 11.054 17.9897
rtibia 32.1055
rfoot 6.44886 -9.53306
rtoes -6.94635
lfemur 18.6511 5.80872 -22.8328
ltibia 2.91768
lfoot 10.9179 -9.76173
ltoes -27.2716
965
root 47.5746 17.0024 -6.42189 -125.843 -88.5487 124.752
lowerback 3.4227 -0.684368 -1.01054
upperback -0.227332 -0.982004 -1.00593
thorax -2.15255 -0.486683 -0.414093
lowerneck -4.10457 0.806828 2.0139
upperneck 10.3609 0.655586 1.53745
head 4.12298 0.428036 0.185565
rclavicle -7.62875e-015 -6.75868e-015
rhumerus -35.7846 -7.93409 -86.525
rradius 26.8845
rwrist 3.21214
rhand -18.3296 -13.1311
rfingers 7.12502
rthumb 7.95223 -42.9616
lclavicle -7.62875e-015 -6.75868e-015
lhumerus -32.8703 9.71634 81.9611
lradius 19.7917
lwrist 13.9748
lhand -19.0581 12.992
lfingers 7.12502
lthumb 7.24908 42.8479
rfemur -29.8873 10.7823 17.8984
rtibia 32.8266
rfoot 5.20839 -8.8519
rtoes -8.08654
lfemur 17.405 6.23061 -22.9285
ltibia 4.32064
lfoot 9.87582 -10.2557
ltoes -26.8956
966
root 47.7183 16.9935 -6.41286 -130.49 -88.3109 129.395
lowerback 3.41025 -0.625557 -1.13264
upperback -0.180605 -0.909344 -1.04829
thorax -2.09639 -0.449905 -0.393358
lowerneck -4.12277 0.823561 2.01716
upperneck 10.3778 0.680496 1.50415
head 4.13285 0.43922 0.175268
rclavicle 3.08446e-015 7.95139e-016
rhumerus -35.8003 -7.89724 -86.6239
rradius 26.9114
rwrist 3.14534
rhand -18.2959 -13.095
rfingers 7.12502
rthumb 7.98473 -42.9242
lclavicle 3.08446e-015 7.95139e-016
lhumerus -32.8596 9.68478 81.9748
lradius 19.7318
lwrist 13.9435
lhand -18.9847 12.9631
lfingers 7.12502
lthumb 7.31988 42.8165
rfemur -30.0218 10.4271 17.9137
rtibia 33.7624
rfoot 3.78671 -8.23106
rtoes -9.05822
lfemur 16.2397 6.63039 -22.9858
ltibia 5.69765
lfoot 8.919 -10.7269
ltoes -26.5185
